<svg width="37" height="40" viewBox="0 0 37 40" fill="none" xmlns="http://www.w3.org/2000/svg">
<g clip-path="url(#clip0_56_2)">
<path d="M0.834344 21.3466L5.01425 17.8527C5.98291 17.0432 7.40667 17.1942 8.19403 18.1897C8.98176 19.1856 8.83486 20.6493 7.8662 21.4588L5.84341 23.1496L20.5299 35.8716C21.4985 36.6811 21.6454 38.1448 20.8577 39.1403C20.4111 39.7055 19.7595 39.9984 19.1028 39.9984C18.6018 39.9984 18.0971 39.828 17.6783 39.4777L0.834344 24.9526C0.306723 24.5114 0 23.8491 0 23.1496C0 22.45 0.306723 21.7882 0.834344 21.3466Z" fill="#E4E4E4"/>
<path d="M19.3972 7.32817e-05C20.5971 0.00996334 21.5624 1.018 21.5528 2.25197L21.3659 37.7835C21.3563 39.0175 20.3755 40.0095 19.1755 39.9996C18.8714 39.9974 18.5828 39.9308 18.3208 39.8129C17.5494 39.4648 17.0125 38.6694 17.0196 37.7478L17.2068 2.21659C17.2164 0.982613 18.1969 -0.00981677 19.3972 7.32817e-05Z" fill="#E4E4E4"/>
<path d="M28.9335 24.443L30.4771 23.1528L24.9789 18.5566C24.0102 17.7471 23.8637 16.2834 24.6511 15.2879C25.4385 14.2917 26.8622 14.141 27.8309 14.9505L35.4858 21.3497C36.0138 21.7914 36.3202 22.4532 36.3202 23.1528C36.3202 23.8523 36.0138 24.5146 35.4858 24.9558L31.7854 28.0491C31.3662 28.3995 30.8619 28.5699 30.3609 28.5699C29.7038 28.5699 29.0522 28.277 28.6057 27.7121C27.8183 26.7162 27.9652 25.2529 28.9335 24.443Z" fill="#E4E4E4"/>
</g>
<defs>
<clipPath id="clip0_56_2">
<rect width="37" height="40" fill="white"/>
</clipPath>
</defs>
</svg>
